<svg xmlns="http://www.w3.org/2000/svg" xmlns:xlink="http://www.w3.org/1999/xlink" width="24" height="24" viewBox="0 0 24 24"><defs><clipPath id="a"><path d="M0,0H24V24H0Z" transform="translate(53 528)" fill="#f3f3f3" opacity="0.18"/></clipPath></defs><g transform="translate(-53 -528)" clip-path="url(#a)"><g transform="translate(53 528)"><rect width="0.795" height="0.795" transform="translate(16.966 23.123)" fill="#fff"/><rect width="0.795" height="5.866" transform="translate(14.233 17.354) rotate(-28.3)" fill="#fff"/><path d="M4.767,11.486l.562-.562L3.062,8.658V7.4L4.767,9.1l.562-.562L2.946,6.158l0,0A.387.387,0,0,0,2.4,6.146l-.012.012L0,8.542.562,9.1,2.268,7.4v1.26L0,10.925l.562.562L2.268,9.781v1.26L0,13.308l.562.562,1.705-1.705v1.26L0,15.692l.562.562,1.705-1.705v9.37h.795v-9.37l1.705,1.705.562-.562L3.062,13.425v-1.26L4.767,13.87l.562-.562L3.062,11.041V9.781Z" fill="#fff"/><path d="M23.438,13.075,24,12.514l-2.267-2.267V8.986l1.705,1.705L24,10.13,21.616,7.747l0,0a.387.387,0,0,0-.547-.015l-.012.012-2.384,2.384.562.562,1.706-1.706v1.26l-2.267,2.267.562.562,1.705-1.705v1.26L18.671,14.9l.562.562,1.705-1.705v3.808L20.1,15.8a.4.4,0,0,0-.358-.228H14.582V12.562l1.705,1.705.562-.562-2.267-2.267v-1.26l1.705,1.705.562-.562L14.582,9.055V7.795L16.288,9.5l.562-.562L14.582,6.671V5.411l1.705,1.705.562-.562L14.466,4.171l0,0a.387.387,0,0,0-.547-.015l-.012.012L11.52,6.555l.562.562,1.706-1.706v1.26L11.521,8.938l.562.562,1.705-1.705v1.26l-2.267,2.267.562.562,1.705-1.705v1.26l-2.267,2.267.562.562,1.705-1.705v3.014H8.226a.392.392,0,0,0-.292.133.343.343,0,0,0-.059.079L3.9,23.336a.4.4,0,0,0,.352.582H16.171v-.795H12.437L8.884,16.37H19.5l3.2,6.753H18.555v.795h4.767a.4.4,0,0,0,.358-.567l-1.947-4.112V13.753l1.705,1.705L24,14.9,21.733,12.63V11.37ZM7.829,23.123H4.912L7.829,17.58Zm3.712,0H8.624V17.58Z" fill="#fff"/><path d="M7.63.082A.4.4,0,0,0,7.35.761,2.315,2.315,0,0,1,8.1,2.179,1.222,1.222,0,0,1,6.747,3.53h0a2.315,2.315,0,0,1-1.419-.748.4.4,0,0,0-.678.281A2.979,2.979,0,1,0,7.63.082ZM9.6,4.014a2.185,2.185,0,0,1-3.932,0,2.618,2.618,0,0,0,1.023.3,2.046,2.046,0,0,0,1.62-.579A2.21,2.21,0,0,0,8.584,1.1,2.185,2.185,0,0,1,9.6,4.014Z" fill="#fff"/></g></g></svg>