<svg xmlns="http://www.w3.org/2000/svg" xmlns:xlink="http://www.w3.org/1999/xlink" width="24" height="24" viewBox="0 0 24 24"><defs><clipPath id="a"><rect width="24" height="24" transform="translate(53 528)" fill="#f3f3f3" opacity="0.2"/></clipPath></defs><g transform="translate(-53 -528)" clip-path="url(#a)"><g transform="translate(53 528)"><path d="M23.648,15.406a4.96,4.96,0,0,0-2.069.4,4.306,4.306,0,0,1-1.815.352,4.306,4.306,0,0,1-1.815-.352,4.959,4.959,0,0,0-2.069-.4,4.954,4.954,0,0,0-2.068.4A4.3,4.3,0,0,1,12,16.157a4.3,4.3,0,0,1-1.815-.352,4.956,4.956,0,0,0-2.068-.4,4.954,4.954,0,0,0-2.068.4,4.3,4.3,0,0,1-1.814.352,4.3,4.3,0,0,1-1.813-.352,4.951,4.951,0,0,0-2.067-.4.352.352,0,1,0,0,.7,4.3,4.3,0,0,1,1.813.352,4.951,4.951,0,0,0,2.067.4,4.954,4.954,0,0,0,2.068-.4,4.3,4.3,0,0,1,1.814-.352,4.3,4.3,0,0,1,1.815.352,4.956,4.956,0,0,0,2.068.4,4.954,4.954,0,0,0,2.068-.4,4.3,4.3,0,0,1,1.814-.352,4.306,4.306,0,0,1,1.815.352,4.96,4.96,0,0,0,2.069.4,4.96,4.96,0,0,0,2.069-.4,4.306,4.306,0,0,1,1.815-.352.352.352,0,0,0,0-.7Z" fill="#fff"/><path d="M22.1,17.485a.352.352,0,0,0-.455-.2l-.064.025a5.708,5.708,0,0,1-.649.221.352.352,0,1,0,.177.681,6.356,6.356,0,0,0,.726-.246l.063-.024A.352.352,0,0,0,22.1,17.485Z" fill="#fff"/><path d="M19.528,17.656a4.23,4.23,0,0,1-1.579-.348,4.96,4.96,0,0,0-2.069-.4,4.954,4.954,0,0,0-2.068.4A4.3,4.3,0,0,1,12,17.661a4.3,4.3,0,0,1-1.815-.352,4.956,4.956,0,0,0-2.068-.4,4.954,4.954,0,0,0-2.068.4,4.224,4.224,0,0,1-1.574.348.352.352,0,1,0,.026.7,4.877,4.877,0,0,0,1.8-.395,4.3,4.3,0,0,1,1.814-.352,4.3,4.3,0,0,1,1.815.352,4.957,4.957,0,0,0,2.069.4,4.954,4.954,0,0,0,2.068-.4,4.3,4.3,0,0,1,1.814-.352,4.306,4.306,0,0,1,1.815.352,4.884,4.884,0,0,0,1.808.395.352.352,0,0,0,.025-.7Z" fill="#fff"/><path d="M15.879,18.412a4.954,4.954,0,0,0-2.068.4A4.3,4.3,0,0,1,12,19.164a4.3,4.3,0,0,1-1.815-.352,4.956,4.956,0,0,0-2.068-.4.352.352,0,0,0,0,.7,4.3,4.3,0,0,1,1.815.352,4.956,4.956,0,0,0,2.068.4,4.954,4.954,0,0,0,2.068-.4,4.3,4.3,0,0,1,1.814-.352.352.352,0,0,0,0-.7Z" fill="#fff"/><path d="M3.071,17.53a5.683,5.683,0,0,1-.652-.222.352.352,0,1,0-.254.656,6.338,6.338,0,0,0,.73.247.352.352,0,0,0,.176-.681Z" fill="#fff"/><path d="M16.607,10.673A5.613,5.613,0,0,0,6.388,13.879c0,.134,0,.268.014.4a.352.352,0,0,0,.35.327h.025A.352.352,0,0,0,7.1,14.23c-.008-.116-.012-.234-.012-.351a4.909,4.909,0,0,1,8.939-2.8.352.352,0,0,0,.577-.4Z" fill="#fff"/><path d="M4.861,13.527H2.606a.352.352,0,0,0,0,.7H4.861a.352.352,0,0,0,0-.7Z" fill="#fff"/><path d="M12,4.133a.352.352,0,0,0-.352.352V6.739a.352.352,0,0,0,.7,0V4.485A.352.352,0,0,0,12,4.133Z" fill="#fff"/><path d="M18.891,6.988a.352.352,0,0,0-.5,0L16.8,8.582a.352.352,0,1,0,.5.5l1.594-1.594A.352.352,0,0,0,18.891,6.988Z" fill="#fff"/><path d="M9.593,7.148l-.288-.694a.352.352,0,1,0-.65.269l.288.694a.352.352,0,0,0,.65-.269Z" fill="#fff"/><path d="M19.615,10.725a.352.352,0,0,0-.459-.19l-.694.288a.352.352,0,1,0,.269.65l.694-.288A.352.352,0,0,0,19.615,10.725Z" fill="#fff"/><path d="M15.154,6.264a.352.352,0,0,0-.459.19l-.288.694a.352.352,0,1,0,.65.269l.288-.694A.352.352,0,0,0,15.154,6.264Z" fill="#fff"/><path d="M5.539,10.822l-.694-.288a.352.352,0,0,0-.269.65l.694.288a.352.352,0,1,0,.269-.65Z" fill="#fff"/><path d="M5.478,6.388a2.346,2.346,0,0,0-1.434.491,1.932,1.932,0,0,0-.579-.089A1.964,1.964,0,0,0,1.5,8.752a.352.352,0,0,0,.352.352H7.491a.352.352,0,0,0,.352-.352A2.367,2.367,0,0,0,5.478,6.388ZM2.256,8.4a1.261,1.261,0,0,1,1.209-.907,1.247,1.247,0,0,1,.507.108.352.352,0,0,0,.381-.064A1.654,1.654,0,0,1,7.1,8.4Z" fill="#fff"/><path d="M17.9,12.293a1.93,1.93,0,0,0-.579.089,2.358,2.358,0,0,0-3.8,1.873.352.352,0,0,0,.352.352h5.636a.352.352,0,0,0,.352-.352A1.964,1.964,0,0,0,17.9,12.293ZM14.268,13.9a1.654,1.654,0,0,1,2.749-.863.352.352,0,0,0,.381.064A1.247,1.247,0,0,1,17.9,13a1.261,1.261,0,0,1,1.209.907H14.268Z" fill="#fff"/></g></g></svg>