<svg xmlns="http://www.w3.org/2000/svg" xmlns:xlink="http://www.w3.org/1999/xlink" width="24" height="24" viewBox="0 0 24 24"><defs><clipPath id="a"><rect width="24" height="24" transform="translate(53 528)" fill="#f3f3f3" opacity="0.2"/></clipPath></defs><g transform="translate(-53 -528)" clip-path="url(#a)"><g transform="translate(53 528)"><path d="M23.937,12.256A11.738,11.738,0,0,0,14.8,6.085C12.869,3.646,6.81,3.028,6.548,3a.5.5,0,0,0-.515.677A40.313,40.313,0,0,1,7.4,7.693,17,17,0,0,0,4.715,9.178,5.269,5.269,0,0,0,.5,7a.5.5,0,0,0-.5.5c0,2.9,1.01,4.351,1.685,5C1.01,13.149,0,14.6,0,17.5a.5.5,0,0,0,.5.5,5.269,5.269,0,0,0,4.215-2.178,19.553,19.553,0,0,0,3.8,1.966A5.316,5.316,0,0,0,8,20.5a.5.5,0,0,0,.5.5c.149,0,3.549-.029,5.242-2.016a11.722,11.722,0,0,0,10.194-6.241A.5.5,0,0,0,23.937,12.256ZM7.261,4.1a16.149,16.149,0,0,1,6,1.912A15.829,15.829,0,0,0,8.325,7.292C8.1,6.413,7.612,5.04,7.261,4.1ZM9.012,19.971c.067-1.391.388-1.746.477-1.819a16.269,16.269,0,0,0,2.858.75A7.241,7.241,0,0,1,9.012,19.971Zm.419-1.837h0ZM13.5,18c-2.922,0-7.7-2.4-8.584-3.3a.5.5,0,0,0-.357-.15.527.527,0,0,0-.091.008.5.5,0,0,0-.368.293,3.817,3.817,0,0,1-3.086,2.109c.156-3.133,1.639-3.971,1.715-4.011a.5.5,0,0,0,0-.889c-.067-.036-1.559-.867-1.716-4.009A3.845,3.845,0,0,1,4.1,10.153a.5.5,0,0,0,.816.151C5.8,9.4,10.578,7,13.5,7a10.727,10.727,0,0,1,9.424,5.5A10.727,10.727,0,0,1,13.5,18Z" fill="#fff"/><path d="M15,12.5a7.315,7.315,0,0,1,.917-3.724.5.5,0,0,0-.833-.553A8.156,8.156,0,0,0,14,12.5a8.156,8.156,0,0,0,1.084,4.277.5.5,0,1,0,.832-.555A7.218,7.218,0,0,1,15,12.5Z" fill="#fff"/><path d="M13.775,8.084a.5.5,0,0,0-.691.139A8.156,8.156,0,0,0,12,12.5a9.109,9.109,0,0,0,.555,3.176.5.5,0,0,0,.937-.351A8.11,8.11,0,0,1,13,12.5a7.315,7.315,0,0,1,.917-3.724A.5.5,0,0,0,13.775,8.084Z" fill="#fff"/><circle cx="1" cy="1" r="1" transform="translate(17 10)" fill="#fff"/></g></g></svg>