<svg xmlns="http://www.w3.org/2000/svg" xmlns:xlink="http://www.w3.org/1999/xlink" width="24" height="24" viewBox="0 0 24 24"><defs><clipPath id="a"><rect width="24" height="24" transform="translate(53 528)" fill="#f3f3f3" opacity="0.2"/></clipPath></defs><g transform="translate(-53 -528)" clip-path="url(#a)"><path d="M23.7,11.6l-1.861.784a.4.4,0,0,0-.1.062l-2.512,2.131-.044-.107a1.2,1.2,0,0,0-1.493-.678l-.274.092-.2-.205-.958-1.6,1.1-5.035.569-.285a.98.98,0,0,0-.113-1.8l.235-1.073a.392.392,0,0,0-.765-.167l-.288,1.314-3.02,1.512L12.837,5.57l.018-.1a1.748,1.748,0,0,0-.212-1.159,2.148,2.148,0,0,0,1.872-2.872L15.9.75a.393.393,0,0,0-.349-.7L14.121.759A2.153,2.153,0,0,0,10.763,3.45a1.74,1.74,0,0,0-.338.1l.055-.292a.631.631,0,0,0-.526-.741L8.136,2.252A.994.994,0,0,0,7,3.068l-.457,2.6-.5-.107a.826.826,0,0,0-.983.647L4.686,8.119a.826.826,0,0,0,.684.976l.953.147h.005l2.208.3L8.515,9.6a1.514,1.514,0,0,0,.368,1.558c.013.012.028.022.039.034L9.844,13.8l-1.911,2.9-.984,1.166a.392.392,0,0,0,.121.6l1.894.965-.845.509L0,20.969l.1.777,8.2-1.028a.382.382,0,0,0,.154-.054L13.688,17.5l2.75-1.013,2.723-1,.282-.1a.4.4,0,0,0,.117-.069l2.634-2.233L24,12.317Zm-6.269,3.1.509-.171a.42.42,0,0,1,.519.235l.053.127-1.928.711-.059.021-.318-.775.64-.427.181.183a.392.392,0,0,0,.4.1ZM9.9,10.821a.739.739,0,0,1-.634-.97l.081-.245h2.405l2.541.726,1.129,1.881-.2.934-1.119-1.79a.393.393,0,0,0-.3-.184Zm1.578-2H9.522l.182-1.1.128-.011a5.911,5.911,0,0,0,1.9-.5l.018.016ZM9.836,6.916l.231-1.4a.971.971,0,0,0,.314.525l.689.593a5.158,5.158,0,0,1-1.234.284Zm5.95,8.978-.405.149.163-.742Zm.581-2.1-.353.235-.176.117-.032-.051.2-.905Zm-.705-2.7-.782-1.3a.392.392,0,0,0-.228-.175l-2.4-.688.2-1.119.744.64a.98.98,0,0,0,1.077.133l2.187-1.095ZM17.4,5.708a.2.2,0,0,1,.151-.011.193.193,0,0,1,.112.1.2.2,0,0,1-.086.263L13.914,7.889a.2.2,0,0,1-.215-.027L12.057,6.448l-1.165-1a.2.2,0,0,1,.113-.344h.015a.2.2,0,0,1,.128.047l2.709,2.331ZM13.86,2.162a1.367,1.367,0,0,1-2.458.83l2.4-1.2a1.354,1.354,0,0,1,.059.369ZM12.488.79a1.359,1.359,0,0,1,.893.339L11.126,2.255c0-.031-.009-.061-.009-.093A1.374,1.374,0,0,1,12.487.79ZM11.28,4.209a.958.958,0,0,1,.771.682l-.392-.337a.974.974,0,0,0-1.358.082.97.97,0,0,1,.98-.427ZM5.455,8.271l.378-1.916-.385-.076.434.043.528.113L6.064,8.409,5.49,8.32ZM7.777,3.2a.219.219,0,0,1,.244-.176l1.659.246-.3,1.6v.009L8.735,8.775l-1.9-.255Zm2.875,10.522L9.9,11.608l1.4.127.319,2.086L9.34,17.156,8.8,16.822l1.81-2.75a.392.392,0,0,0,.043-.346Zm-.9,5.239L7.867,18l.464-.548.916.565a.4.4,0,0,0,.1.043.383.383,0,0,0,.106.015H9.5a.79.79,0,0,1,.761.583l-.121.073Zm3.628-2.184a.39.39,0,0,0-.067.033l-2.373,1.435a1.574,1.574,0,0,0-.832-.827l2.249-3.285a.39.39,0,0,0,.064-.28l-.314-2.048,1.426.13,1.441,2.306-.465,2.122Zm0,0" transform="translate(53 529.127)" fill="#fff"/></g></svg>