<svg xmlns="http://www.w3.org/2000/svg" xmlns:xlink="http://www.w3.org/1999/xlink" width="24" height="24" viewBox="0 0 24 24"><defs><clipPath id="a"><rect width="24" height="24" transform="translate(53 528)" fill="#f3f3f3" opacity="0.2"/></clipPath></defs><g transform="translate(-53 -528)" clip-path="url(#a)"><g transform="translate(53.236 528)"><path d="M.445,6.63a.971.971,0,0,0-.015.144V7.76a.979.979,0,0,0,.635.914v1.453a.913.913,0,0,0,.87.909v8.393a.913.913,0,0,0-.87.909v1.448a.99.99,0,0,0-.635.922v.966A.326.326,0,0,0,.756,24h22a.326.326,0,0,0,.326-.326v-.966a.99.99,0,0,0-.635-.922V20.329a.913.913,0,0,0-.87-.909V11.036a.913.913,0,0,0,.87-.909V8.674a.979.979,0,0,0,.635-.914V6.78a.948.948,0,0,0-.015-.144.325.325,0,0,0,.263-.594l-11.425-6a.326.326,0,0,0-.3,0l-11.424,6a.326.326,0,0,0,.267.594Zm1.272,2.61v-.5H5.48v.5Zm8.377,1.8v8.39a.913.913,0,0,0-.87.909v1.387h-3.1V20.338a.913.913,0,0,0-.87-.909V11.036a.913.913,0,0,0,.87-.909V8.737H9.221v1.388a.914.914,0,0,0,.87.911Zm-.218-1.8v-.5H13.64v.5Zm8.378,1.8v8.39a.914.914,0,0,0-.87.909v1.387h-3.1V20.338a.914.914,0,0,0-.87-.909V11.036a.913.913,0,0,0,.87-.909V8.737h3.093v1.388a.913.913,0,0,0,.87.911Zm-.217-1.8v-.5H21.8v.5ZM21.8,21.227v.5H18.033v-.5Zm-8.16,0v.5H9.873v-.5ZM10.417,10.39h-.283a.261.261,0,0,1-.261-.261V9.892h3.762v.237a.261.261,0,0,1-.261.261Zm2.351.652v8.382H10.743V11.042Zm-2.351,9.034h2.958a.261.261,0,0,1,.261.261v.237H9.873v-.237a.261.261,0,0,1,.261-.261ZM5.476,21.227v.5H1.713v-.5ZM1.713,10.135V9.892H5.476v.237a.261.261,0,0,1-.261.261H1.968a.261.261,0,0,1-.254-.263Zm2.893.913v8.375H2.583V11.042Zm-2.893,9.3a.261.261,0,0,1,.261-.261h3.24a.261.261,0,0,1,.261.261v.237H1.713Zm20.717,2.377v.639H1.078v-.639a.337.337,0,0,1,.337-.337H22.094a.337.337,0,0,1,.337.331ZM21.8,20.344v.237H18.033v-.237a.261.261,0,0,1,.261-.261h3.247a.261.261,0,0,1,.254.254ZM18.9,19.431V11.042h2.025v8.382Zm2.893-9.3a.261.261,0,0,1-.261.261H18.3a.261.261,0,0,1-.261-.261V9.892H21.8ZM11.754.69,21.469,5.8H2.04ZM1.078,6.78A.326.326,0,0,1,1.4,6.454H22.1a.326.326,0,0,1,.326.326v.987a.326.326,0,0,1-.326.326H1.4a.326.326,0,0,1-.326-.326Zm0,0" fill="#fff"/></g></g></svg>